<svg width="25" height="25" viewBox="0 0 25 25" fill="none" xmlns="http://www.w3.org/2000/svg">
<path d="M12.5009 1.67688C6.53273 1.67688 1.67773 6.53188 1.67773 12.5C1.67773 18.4681 6.53336 23.3231 12.5009 23.3231C18.4684 23.3231 23.3227 18.4675 23.3227 12.5C23.3227 6.5325 18.4684 1.67688 12.5009 1.67688ZM12.5009 22.3856C7.04961 22.3856 2.61523 17.9506 2.61523 12.5C2.61523 7.04938 7.04961 2.61438 12.5009 2.61438C17.9515 2.61438 22.3852 7.04938 22.3852 12.5C22.3852 17.9506 17.9515 22.3856 12.5009 22.3856V22.3856Z" fill="#F8F8F8"/>
<path d="M12.5081 14.1856C11.6806 14.1834 10.8664 14.3939 10.1436 14.7968C9.42087 15.1998 8.81379 15.7818 8.38064 16.4869C8.348 16.5398 8.33769 16.6034 8.35199 16.6639C8.36629 16.7244 8.40402 16.7767 8.45689 16.8094L8.81439 17.03C8.86722 17.0624 8.93075 17.0726 8.99108 17.0583C9.0514 17.0441 9.10361 17.0064 9.13627 16.9537C9.48948 16.3771 9.98515 15.9012 10.5756 15.5716C11.166 15.242 11.8313 15.0699 12.5075 15.0719C13.1797 15.07 13.8412 15.2401 14.429 15.566C15.0169 15.8919 15.5117 16.3627 15.8663 16.9338C15.8994 16.9861 15.9519 17.0232 16.0123 17.037C16.0727 17.0508 16.1361 17.0402 16.1888 17.0075L16.5438 16.785C16.5699 16.7688 16.5926 16.7476 16.6105 16.7225C16.6284 16.6975 16.6412 16.6692 16.648 16.6392C16.6549 16.6092 16.6557 16.5781 16.6505 16.5478C16.6452 16.5174 16.634 16.4885 16.6175 16.4625C16.1833 15.7643 15.5779 15.1886 14.8587 14.7901C14.1395 14.3917 13.3304 14.1836 12.5081 14.1856V14.1856Z" fill="#F8F8F8"/>
<path d="M9.6442 10.6556C10.0046 10.6556 10.2967 10.3635 10.2967 10.0031C10.2967 9.64275 10.0046 9.35062 9.6442 9.35062C9.28383 9.35062 8.9917 9.64275 8.9917 10.0031C8.9917 10.3635 9.28383 10.6556 9.6442 10.6556Z" fill="#F8F8F8"/>
<path d="M15.3551 10.6556C15.7155 10.6556 16.0076 10.3635 16.0076 10.0031C16.0076 9.64275 15.7155 9.35062 15.3551 9.35062C14.9948 9.35062 14.7026 9.64275 14.7026 10.0031C14.7026 10.3635 14.9948 10.6556 15.3551 10.6556Z" fill="#F8F8F8"/>
</svg>
