<svg width="19" height="21" viewBox="0 0 19 21" fill="none" xmlns="http://www.w3.org/2000/svg">
<path d="M14.5833 20.8333H4.16667C3.61413 20.8333 3.08423 20.6138 2.69353 20.2231C2.30283 19.8324 2.08333 19.3025 2.08333 18.75V5.20833H0V3.125H4.16667V2.08333C4.16667 1.5308 4.38616 1.00089 4.77686 0.610194C5.16756 0.219493 5.69747 0 6.25 0H12.5C13.0525 0 13.5824 0.219493 13.9731 0.610194C14.3638 1.00089 14.5833 1.5308 14.5833 2.08333V3.125H18.75V5.20833H16.6667V18.75C16.6667 19.3025 16.4472 19.8324 16.0565 20.2231C15.6658 20.6138 15.1359 20.8333 14.5833 20.8333ZM4.16667 5.20833V18.75H14.5833V5.20833H4.16667ZM6.25 2.08333V3.125H12.5V2.08333H6.25Z" fill="#F8F8F8"/>
</svg>
