<svg width="28" height="29" viewBox="0 0 28 29" fill="none" xmlns="http://www.w3.org/2000/svg">
<path fill-rule="evenodd" clip-rule="evenodd" d="M27.96 14.5983C27.96 13.6055 27.8709 12.651 27.7055 11.7346H14.52V17.1501H22.0546C21.73 18.9001 20.7437 20.3828 19.2609 21.3755V24.8883H23.7855C26.4328 22.451 27.96 18.8619 27.96 14.5983Z" fill="#4285F4"/>
<path fill-rule="evenodd" clip-rule="evenodd" d="M14.5199 28.2801C18.2999 28.2801 21.469 27.0264 23.7854 24.8882L19.2609 21.3755C18.0072 22.2155 16.4036 22.7119 14.5199 22.7119C10.8736 22.7119 7.78722 20.2492 6.68631 16.9401H2.00903V20.5673C4.31267 25.1428 9.04722 28.2801 14.5199 28.2801Z" fill="#34A853"/>
<path fill-rule="evenodd" clip-rule="evenodd" d="M6.68639 16.9401C6.40639 16.1001 6.24729 15.2028 6.24729 14.2801C6.24729 13.3573 6.40639 12.4601 6.68639 11.6201V7.9928H2.00911C1.06093 9.8828 0.52002 12.021 0.52002 14.2801C0.52002 16.5392 1.06093 18.6774 2.00911 20.5674L6.68639 16.9401Z" fill="#FBBC05"/>
<path fill-rule="evenodd" clip-rule="evenodd" d="M14.5199 5.84821C16.5754 5.84821 18.4209 6.55458 19.8718 7.94185L23.8872 3.92639C21.4627 1.6673 18.2936 0.280029 14.5199 0.280029C9.04722 0.280029 4.31267 3.4173 2.00903 7.99276L6.68631 11.62C7.78722 8.31094 10.8736 5.84821 14.5199 5.84821Z" fill="#EA4335"/>
</svg>
