<svg width="25" height="25" viewBox="0 0 25 25" fill="none" xmlns="http://www.w3.org/2000/svg">
<path d="M12.5009 1.67688C6.53273 1.67688 1.67773 6.53188 1.67773 12.5C1.67773 18.4681 6.53336 23.3231 12.5009 23.3231C18.4684 23.3231 23.3227 18.4675 23.3227 12.5C23.3227 6.5325 18.4684 1.67688 12.5009 1.67688ZM12.5009 22.3856C7.04961 22.3856 2.61523 17.9506 2.61523 12.5C2.61523 7.04938 7.04961 2.61438 12.5009 2.61438C17.9515 2.61438 22.3852 7.04938 22.3852 12.5C22.3852 17.9506 17.9515 22.3856 12.5009 22.3856V22.3856Z" fill="#F8F8F8"/>
<path d="M16.5449 14.7844L16.1899 14.5619C16.164 14.5452 16.1349 14.5339 16.1045 14.5287C16.0741 14.5236 16.043 14.5246 16.013 14.5319C15.9831 14.5387 15.9548 14.5513 15.9298 14.5691C15.9048 14.5869 15.8836 14.6095 15.8674 14.6356C15.5127 15.2066 15.0179 15.6773 14.43 16.0032C13.8422 16.329 13.1808 16.4992 12.5086 16.4975C11.8325 16.4996 11.1672 16.3276 10.5768 15.9981C9.98638 15.6686 9.49067 15.1928 9.13738 14.6163C9.1046 14.5635 9.05229 14.5259 8.99186 14.5116C8.93143 14.4973 8.8678 14.5075 8.81488 14.54L8.45738 14.7606C8.40451 14.7933 8.36678 14.8456 8.35248 14.9061C8.33818 14.9666 8.34849 15.0303 8.38113 15.0831C8.81426 15.7882 9.42136 16.3701 10.1441 16.773C10.8669 17.1759 11.6811 17.3862 12.5086 17.3838C13.331 17.386 14.1402 17.178 14.8597 16.7797C15.5791 16.3813 16.1848 15.8057 16.6193 15.1075C16.6356 15.0814 16.6466 15.0524 16.6517 15.022C16.6569 14.9916 16.6559 14.9605 16.649 14.9305C16.6421 14.9005 16.6294 14.8722 16.6115 14.8471C16.5936 14.822 16.571 14.8007 16.5449 14.7844V14.7844Z" fill="#F8F8F8"/>
<path d="M9.54068 10.35C9.90105 10.35 10.1932 10.0579 10.1932 9.69751C10.1932 9.33715 9.90105 9.04501 9.54068 9.04501C9.18032 9.04501 8.88818 9.33715 8.88818 9.69751C8.88818 10.0579 9.18032 10.35 9.54068 10.35Z" fill="#F8F8F8"/>
<path d="M15.2521 10.35C15.6125 10.35 15.9046 10.0579 15.9046 9.69751C15.9046 9.33715 15.6125 9.04501 15.2521 9.04501C14.8917 9.04501 14.5996 9.33715 14.5996 9.69751C14.5996 10.0579 14.8917 10.35 15.2521 10.35Z" fill="#F8F8F8"/>
</svg>
