<svg width="484" height="131" viewBox="0 0 484 131" fill="none" xmlns="http://www.w3.org/2000/svg">
<path d="M89 53.75C82.2352 53.75 76.75 59.2352 76.75 66C76.75 72.7648 82.2352 78.25 89 78.25C95.7648 78.25 101.25 72.7648 101.25 66C101.25 59.2352 95.7648 53.75 89 53.75ZM94.8871 62.984C94.8953 63.1125 94.8953 63.2465 94.8953 63.3777C94.8953 67.3918 91.8383 72.0156 86.252 72.0156C84.5293 72.0156 82.9324 71.5152 81.5871 70.6539C81.8332 70.6812 82.0684 70.6922 82.3199 70.6922C83.7418 70.6922 85.0488 70.2109 86.0906 69.3961C84.7563 69.3688 83.6352 68.4938 83.2523 67.2906C83.7199 67.359 84.141 67.359 84.6223 67.2359C83.9352 67.0963 83.3176 66.7232 82.8745 66.1799C82.4314 65.6366 82.19 64.9566 82.1914 64.2555V64.2172C82.5934 64.4441 83.0664 64.5836 83.5613 64.6027C83.1453 64.3255 82.8041 63.9498 82.568 63.5091C82.3319 63.0683 82.2081 62.5762 82.2078 62.0762C82.2078 61.5102 82.3555 60.9934 82.6207 60.5449C83.3833 61.4837 84.335 62.2516 85.4138 62.7985C86.4926 63.3454 87.6744 63.6592 88.8824 63.7195C88.4531 61.6551 89.9953 59.9844 91.8492 59.9844C92.7242 59.9844 93.5117 60.3508 94.0668 60.9414C94.7531 60.8129 95.4094 60.5559 95.9945 60.2113C95.7676 60.9141 95.2918 61.5074 94.6602 61.882C95.2727 61.8164 95.8633 61.6469 96.4102 61.409C95.9973 62.016 95.4805 62.5547 94.8871 62.984Z" fill="#F8F8F8"/>
<g clip-path="url(#clip0_26_3646)">
<path d="M131.25 66.5C131.25 67.4946 130.855 68.4484 130.152 69.1517C129.448 69.8549 128.495 70.25 127.5 70.25C126.505 70.25 125.552 69.8549 124.848 69.1517C124.145 68.4484 123.75 67.4946 123.75 66.5C123.75 66.2863 123.773 66.0775 123.811 65.875H122.5V70.8713C122.5 71.2188 122.781 71.5 123.129 71.5H131.873C132.039 71.4997 132.199 71.4333 132.316 71.3154C132.434 71.1975 132.5 71.0378 132.5 70.8713V65.875H131.189C131.228 66.0775 131.25 66.2863 131.25 66.5ZM127.5 69C127.828 68.9999 128.154 68.9352 128.457 68.8094C128.76 68.6837 129.036 68.4994 129.268 68.2671C129.5 68.0349 129.684 67.7592 129.81 67.4557C129.935 67.1523 130 66.8271 130 66.4987C130 66.1704 129.935 65.8452 129.809 65.5419C129.684 65.2385 129.499 64.9629 129.267 64.7307C129.035 64.4986 128.759 64.3145 128.456 64.1889C128.152 64.0633 127.827 63.9987 127.499 63.9987C126.836 63.9989 126.2 64.2625 125.731 64.7316C125.262 65.2007 124.999 65.8368 124.999 66.5C124.999 67.1632 125.263 67.7992 125.732 68.268C126.201 68.7369 126.837 69.0002 127.5 69ZM130.5 63.875H131.999C132.098 63.875 132.194 63.8355 132.264 63.7652C132.335 63.695 132.375 63.5996 132.375 63.5V62.0012C132.375 61.9015 132.335 61.8058 132.265 61.7352C132.194 61.6646 132.099 61.625 131.999 61.625H130.5C130.4 61.625 130.305 61.6646 130.234 61.7352C130.163 61.8058 130.124 61.9015 130.124 62.0012V63.5C130.125 63.7063 130.294 63.875 130.5 63.875ZM127.5 54.5C124.317 54.5 121.265 55.7643 119.015 58.0147C116.764 60.2652 115.5 63.3174 115.5 66.5C115.5 69.6826 116.764 72.7348 119.015 74.9853C121.265 77.2357 124.317 78.5 127.5 78.5C129.076 78.5 130.636 78.1896 132.092 77.5866C133.548 76.9835 134.871 76.0996 135.985 74.9853C137.1 73.871 137.983 72.5481 138.587 71.0922C139.19 69.6363 139.5 68.0759 139.5 66.5C139.5 64.9241 139.19 63.3637 138.587 61.9078C137.983 60.4519 137.1 59.129 135.985 58.0147C134.871 56.9004 133.548 56.0165 132.092 55.4134C130.636 54.8104 129.076 54.5 127.5 54.5ZM133.75 71.3612C133.75 72.125 133.125 72.75 132.361 72.75H122.639C121.875 72.75 121.25 72.125 121.25 71.3612V61.6388C121.25 60.875 121.875 60.25 122.639 60.25H132.361C133.125 60.25 133.75 60.875 133.75 61.6388V71.3612Z" fill="#F8F8F8"/>
</g>
<g clip-path="url(#clip1_26_3646)">
<path fill-rule="evenodd" clip-rule="evenodd" d="M177 65.5C177 72.4031 171.403 78 164.5 78C157.597 78 152 72.4031 152 65.5C152 58.5969 157.597 53 164.5 53C171.403 53 177 58.5969 177 65.5ZM164.948 62.2281C163.732 62.7333 161.302 63.7802 157.658 65.3677C157.067 65.6031 156.756 65.8333 156.728 66.0583C156.68 66.4396 157.157 66.5896 157.805 66.7927C157.894 66.8208 157.985 66.849 158.079 66.8802C158.718 67.0875 159.576 67.3302 160.022 67.3396C160.427 67.3479 160.879 67.1812 161.378 66.8396C164.782 64.5406 166.54 63.3792 166.65 63.3542C166.728 63.3365 166.836 63.3135 166.909 63.3792C166.982 63.4437 166.975 63.5667 166.968 63.6C166.92 63.801 165.051 65.5396 164.082 66.4396C163.78 66.7198 163.567 66.9187 163.523 66.9646C163.425 67.0656 163.325 67.1625 163.229 67.2552C162.635 67.826 162.192 68.2552 163.254 68.9552C163.765 69.2917 164.173 69.5698 164.58 69.8469C165.025 70.15 165.469 70.4521 166.044 70.8292C166.19 70.925 166.329 71.024 166.466 71.1208C166.983 71.4906 167.449 71.8219 168.024 71.7698C168.357 71.7385 168.703 71.425 168.878 70.4885C169.292 68.274 170.106 63.4781 170.295 61.501C170.306 61.3369 170.299 61.172 170.274 61.0094C170.259 60.8781 170.195 60.7572 170.095 60.6708C169.946 60.549 169.715 60.5229 169.61 60.525C169.141 60.5333 168.42 60.7844 164.948 62.2281Z" fill="#F8F8F8"/>
</g>
<defs>
<clipPath id="clip0_26_3646">
<rect width="25" height="25" fill="white" transform="translate(115 54)"/>
</clipPath>
<clipPath id="clip1_26_3646">
<rect width="25" height="25" fill="white" transform="translate(152 53)"/>
</clipPath>
</defs>
</svg>
